<?xml version="1.0" encoding="UTF-8"?>
<svg width="16" height="16" viewBox="0 0 16 16" xmlns="http://www.w3.org/2000/svg">
    <path fill="#D4D4D4" d="M3 3v10h10V3H3zm5.5 7.5c0 1.5-1 2-1.8 2-.8 0-1.4-.4-1.7-.9l.9-.5c.2.3.3.5.8.5.4 0 .7-.2.7-.9V7h1.1v3.5zm2.5 2c-.9 0-1.5-.4-1.8-1l.9-.5c.2.4.5.7 1 .7.4 0 .7-.2.7-.5 0-.4-.3-.5-.9-.7l-.3-.1c-.9-.4-1.4-.8-1.4-1.7 0-.8.6-1.5 1.7-1.5.7 0 1.2.3 1.6.9l-.9.5c-.2-.3-.4-.4-.7-.4-.3 0-.5.2-.5.4 0 .3.2.4.7.6l.3.1c1 .4 1.6.8 1.6 1.8 0 1-.8 1.4-1.8 1.4z"/>
</svg>
